<svg width="20" height="20" viewBox="0 0 20 20" fill="none" xmlns="http://www.w3.org/2000/svg">
<g clip-path="url(#clip0)">
<path d="M12.4213 4.91151C12.4486 4.88069 12.5766 4.77998 13.0791 4.77998L14.7268 4.77937C15.2628 4.77937 15.6987 4.34419 15.6987 3.80921V0.935061C15.6987 0.401002 15.2634 -0.0341797 14.7283 -0.0350952L12.2809 -0.0390625C10.7704 -0.0390625 9.48631 0.458222 8.56746 1.39923C7.65274 2.33597 7.16916 3.64365 7.16916 5.18067V6.73082H5.29691C4.76089 6.73082 4.32486 7.166 4.32486 7.70097V10.7964C4.32486 11.3314 4.76089 11.7665 5.29691 11.7665H7.16916V18.9908C7.16916 19.5258 7.60519 19.961 8.14121 19.961H11.3503C11.8863 19.961 12.3224 19.5258 12.3224 18.9908V11.7667H14.6109C15.1469 11.7667 15.5828 11.3314 15.5828 10.7967L15.584 7.70113C15.584 7.34972 15.3925 7.02455 15.0839 6.85258C14.941 6.77293 14.7747 6.73082 14.6031 6.73082H12.3224V5.50615C12.3224 5.10697 12.3762 4.96247 12.4213 4.91151Z" fill="white"/>
</g>
<defs>
<clipPath id="clip0">
<rect width="20" height="20" fill="white"/>
</clipPath>
</defs>
</svg>
