<svg width="208" height="50" viewBox="0 0 208 50" fill="none" xmlns="http://www.w3.org/2000/svg">
<path fill-rule="evenodd" clip-rule="evenodd" d="M0.00635529 2.61035H17.5246V5.23778H2.63378V6.99071H17.5246V13.997H0.00635529V11.3694H14.897V9.61832H0.00635529V2.61035Z" fill="white"/>
<path fill-rule="evenodd" clip-rule="evenodd" d="M108.627 2.61035H126.15V5.23778H111.255V6.99071H126.15V13.997H108.627V11.3694H123.522V9.61832H108.627V2.61035Z" fill="white"/>
<path fill-rule="evenodd" clip-rule="evenodd" d="M143.667 2.61035H161.185V13.997H143.667V2.61035ZM158.557 11.3694V5.23778H146.294V11.3694H158.557Z" fill="white"/>
<path fill-rule="evenodd" clip-rule="evenodd" d="M162.062 2.61035H178.706V5.23778H171.698V13.997H169.071V5.23778H162.062V2.61035Z" fill="white"/>
<path d="M182.209 2.61035H179.582V13.997H182.209V2.61035Z" fill="white"/>
<path fill-rule="evenodd" clip-rule="evenodd" d="M183.961 2.61035H186.589L198.853 10.9202V2.61035H201.479V13.997H198.853L186.589 5.80505V13.997H183.961V2.61035Z" fill="white"/>
<path fill-rule="evenodd" clip-rule="evenodd" d="M127.899 2.61035H130.526V11.3694H142.793V13.997H127.899V2.61035Z" fill="white"/>
<path fill-rule="evenodd" clip-rule="evenodd" d="M55.1929 2.61035H72.7115V5.23778H57.8205V11.3694H70.0839V9.61832H59.5732V6.99071H72.7115V13.997H55.1929V2.61035Z" fill="white"/>
<path fill-rule="evenodd" clip-rule="evenodd" d="M19.2778 2.61035H34.169V5.23778H21.9056V6.99071H34.169V9.61832H21.9056V11.3694H34.169V13.997H19.2778V2.61035Z" fill="white"/>
<path fill-rule="evenodd" clip-rule="evenodd" d="M74.4644 2.61035H89.3587V5.23778H77.092V6.99071H89.3587V9.61832H77.092V11.3694H89.3587V13.997H74.4644V2.61035Z" fill="white"/>
<path fill-rule="evenodd" clip-rule="evenodd" d="M107.346 2.60498H103.964L98.9921 7.57171L94.0201 2.60498H90.6509L97.6519 9.6182H97.6761V13.9969H100.304V9.6182H100.324L107.346 2.60498Z" fill="white"/>
<path fill-rule="evenodd" clip-rule="evenodd" d="M35.9214 2.61035H53.4398V9.61832H49.0902L53.4398 13.997H49.9375L45.5845 9.61832H38.5492V13.997H35.9214V2.61035ZM50.8122 6.99071V5.23778H38.5492V6.99071H50.8122Z" fill="white"/>
<path fill-rule="evenodd" clip-rule="evenodd" d="M72.7124 23.6348H125.271L121.769 27.1389H76.2113L72.7124 23.6348Z" fill="white"/>
<path fill-rule="evenodd" clip-rule="evenodd" d="M98.9955 49.8963V45.5326L77.0997 23.6411H72.7124L98.9955 49.8963Z" fill="white"/>
<path fill-rule="evenodd" clip-rule="evenodd" d="M98.9917 49.8968V45.5331L111.231 33.2705H115.607L98.9917 49.8968Z" fill="white"/>
<path fill-rule="evenodd" clip-rule="evenodd" d="M110.168 33.2706L98.9917 44.4814L82.3545 27.841H83.2222V27.8394H120.86L117.357 31.3432H90.2342L98.9917 40.1024L105.828 33.2706H110.168Z" fill="white"/>
<path fill-rule="evenodd" clip-rule="evenodd" d="M95.7084 14.8735H102.163L99.3784 17.6708L102.579 20.8724L104.438 20.6146V21.2706L103.154 21.4429L104.469 22.7564H103.591L102.382 21.5488L93.4161 22.7564L93.4192 22.7547L93.4058 22.7564L98.5 17.6655L95.7084 14.8735ZM100.632 15.5316H97.2428L98.9375 17.228L100.632 15.5316ZM95.1722 21.8956L101.811 20.9763L98.9409 18.1096L95.1722 21.8956Z" fill="white"/>
<path d="M205.573 0.203125C206.912 0.203125 207.968 1.24518 207.968 2.58286C207.968 3.93608 206.912 4.99368 205.56 4.99368C204.219 4.99368 203.15 3.93608 203.15 2.58286C203.15 1.24518 204.219 0.203125 205.56 0.203125H205.573ZM205.543 0.623244C204.468 0.623244 203.645 1.50991 203.645 2.58286C203.645 3.68651 204.468 4.55783 205.573 4.55783C206.646 4.57337 207.456 3.68651 207.456 2.59821C207.456 1.50991 206.646 0.623244 205.56 0.623244H205.543ZM205.122 3.90519H204.687V1.40058C204.921 1.35452 205.187 1.32176 205.511 1.32176C205.932 1.32176 206.133 1.40058 206.305 1.52526C206.444 1.61775 206.554 1.82107 206.554 2.05322C206.554 2.36569 206.322 2.55028 206.054 2.64595V2.67516C206.29 2.7536 206.397 2.95524 206.475 3.28156C206.554 3.65562 206.601 3.8112 206.663 3.90519H206.211C206.133 3.8112 206.071 3.5944 206.011 3.25067C205.946 2.97078 205.777 2.84609 205.419 2.84609H205.122V3.90519ZM205.122 2.48888H205.433C205.777 2.48888 206.086 2.39489 206.086 2.10115C206.086 1.8514 205.932 1.68084 205.481 1.68084C205.311 1.68084 205.2 1.69619 205.122 1.71155V2.48888Z" fill="white"/>
</svg>
