<svg width="81" height="22" viewBox="0 0 81 22" fill="none" xmlns="http://www.w3.org/2000/svg">
<path fill-rule="evenodd" clip-rule="evenodd" d="M9.72402 18.1292C8.90231 19.6239 6.84794 20.4391 4.79359 20.575C3.28707 20.7108 1.78055 20.3032 0.958813 19.352C0.410983 18.6727 0.13707 17.4498 0.958813 16.3628C2.19142 14.8682 5.47838 14.3248 7.94359 15.4117C8.62838 13.6454 8.62838 11.4714 9.03921 9.43328C6.30011 9.97676 3.56098 9.84089 1.36968 8.34631C0.547939 7.93869 1.23273 5.90058 1.64359 5.35709C3.83489 7.39519 6.57402 7.93868 9.31312 7.66694C9.72402 5.90059 10.5457 3.72661 11.9153 2.232C13.5588 0.329768 16.0241 0.0580207 17.5306 0.873262C18.6262 1.41676 19.311 2.50374 18.7632 3.86248C18.0784 5.62883 14.5175 7.53107 12.1892 8.48218C11.6414 11.4714 11.5044 14.7324 10.5457 16.6346C16.0241 19.4879 22.7349 19.8956 27.8022 16.6346C28.0762 16.9063 28.3501 17.4498 28.4871 17.8574C29.0349 19.488 27.9392 20.4391 26.5696 20.9826C24.6523 21.6619 22.0501 21.6619 19.311 21.3902C15.7502 20.8467 11.9153 19.6239 9.72402 18.1292ZM15.4762 9.56915C16.298 10.2485 17.3936 9.56915 17.6675 8.88979C18.2154 7.93868 17.9414 6.57995 16.0241 7.12344C14.7914 7.53107 14.3805 8.75393 15.4762 9.56915ZM76.4219 9.16153C76.5588 7.66694 78.0653 7.80281 78.2023 8.88979C78.2023 9.29741 78.2023 9.56915 77.7914 9.97676C78.2023 10.3844 78.6132 10.5203 79.024 10.5203C79.8458 10.5203 80.5305 9.70502 80.3936 8.61805C80.2566 7.39519 79.4349 6.17233 77.6545 6.3082C76.148 6.3082 75.0523 7.12344 74.7784 8.34631C73.6828 11.6072 76.5588 12.8302 75.874 15.4117C75.6001 16.3628 74.9154 17.1781 74.0936 17.7216C72.0393 18.9444 68.8892 19.352 66.561 18.5368C65.8762 20.0315 67.9305 20.575 69.9849 20.7108C72.1763 20.8467 74.7784 20.575 76.5588 19.2161C77.2436 18.6727 77.9284 17.9933 78.2023 17.1781C80.1197 13.2378 76.2849 11.7431 76.4219 9.16153ZM53.6871 6.71583C52.1805 6.71583 49.8523 6.03646 49.1675 4.94947C48.7566 4.2701 48.8936 3.18311 49.4414 1.82437C51.2218 2.77549 53.6871 3.59073 57.111 3.18311C61.7675 2.63962 68.2044 -1.16484 72.0393 3.72661C73.4089 5.49296 73.9567 8.34631 73.6828 11.0637C73.2719 13.7813 71.9023 16.4987 69.437 17.5857C65.7392 19.0803 63.6849 15.6835 63.8219 12.4225C63.8219 11.1996 64.2327 9.84089 65.0545 8.48218C66.424 6.17233 69.711 5.49296 70.8066 6.8517C71.2176 7.25932 71.4914 7.93868 71.2175 8.75393C71.0806 9.70502 70.5327 9.97676 70.3958 9.70502C69.8479 8.21043 68.7523 8.21043 67.6566 9.02566C66.2871 10.1126 66.2871 12.2867 66.6979 13.9171C67.2458 15.8193 69.0262 16.7705 70.8066 14.1889C72.5871 11.7431 72.861 6.8517 70.3958 4.81359C68.3414 3.04724 65.1914 3.59073 62.0414 4.54185C59.3023 5.62883 56.2892 6.8517 53.6871 6.71583ZM60.398 11.6072C60.5349 10.3844 59.4393 9.70502 58.6175 9.70502C57.3849 9.70502 56.0153 10.792 55.4675 13.1019C54.9197 15.4117 55.3305 17.8574 56.8371 18.4009C58.2067 18.8085 59.7132 17.3139 59.9871 15.2759L60.398 11.6072ZM60.1241 17.9933C59.3023 19.488 58.2067 20.3032 56.8371 20.1673C54.7827 20.0315 53.6871 18.265 53.2762 16.227C52.7284 13.5095 53.5501 10.1126 55.4675 8.21043C56.2892 7.39519 57.6589 6.71583 58.8915 6.8517C59.7132 6.98757 60.5349 7.39519 60.9458 8.21043L61.2197 6.57995C62.4523 5.90059 64.0958 6.71583 63.8219 7.93868C63.5479 9.97676 63.1371 11.7431 62.8632 13.7813C62.5893 15.14 62.3154 16.9063 63.1371 17.8574C63.548 18.265 63.9588 18.5368 64.9175 18.4009C64.9175 19.6239 64.0958 20.1673 63.1371 20.1673C61.7675 20.4391 60.5349 19.7597 60.1241 17.9933ZM44.511 8.21043C44.648 7.25932 45.1958 6.71583 45.8806 6.57995C46.7023 6.17233 47.798 6.44408 48.2088 6.57995C47.9349 6.98757 47.1132 11.3355 46.8393 12.2867C47.1132 11.6072 47.5241 10.3844 48.2088 9.43328C49.1675 8.07456 50.5371 7.25932 51.4958 7.53107C52.1805 7.66694 52.7284 8.48218 52.5914 10.1126C52.4544 11.4714 51.4958 13.7813 51.3588 15.8193C51.2219 18.265 52.3175 18.8085 53.6871 18.5368C53.824 19.6239 53.2762 20.3032 52.4545 20.4391C51.9066 20.575 51.3588 20.4391 50.811 20.1673C48.6197 18.8085 49.3045 15.8193 49.8523 13.7813C50.674 10.792 49.3045 10.5203 48.3458 12.1508C47.661 12.6943 47.2501 13.5095 46.9762 14.3248C46.2915 16.227 46.0175 17.5857 45.6067 19.352C45.1958 20.575 43.0045 20.7108 43.1414 19.352L44.511 8.21043ZM40.9501 11.4714C39.9914 11.3355 39.3066 10.1126 39.7175 9.02566C40.1283 7.80281 41.6349 7.39519 42.3197 8.88979C43.9632 12.0149 42.4566 17.0422 40.2653 19.352C39.4436 20.1673 38.4849 20.575 37.5262 20.575C34.7871 20.575 33.1436 17.8574 33.0067 14.7324C33.0067 12.6943 33.4175 10.6561 34.5132 9.02566C35.7458 7.12344 37.9371 6.03646 39.8544 6.44408C40.1283 7.53107 39.5805 8.75393 38.6218 9.2974C37.6631 9.56915 36.8414 10.5203 36.4305 11.7432C36.0197 12.8302 35.7458 14.1889 35.8827 15.4117C36.0197 17.1781 36.5675 18.6727 37.6631 18.8085C39.0327 19.0803 39.9914 17.9933 40.4023 16.6346C40.9501 14.8682 41.087 12.8302 40.9501 11.4714ZM20.2697 5.62883C20.5436 4.54185 22.7349 3.99835 23.5566 4.54185C22.7349 7.39519 22.1871 10.3844 21.9132 11.3355C22.5979 9.84089 23.4197 6.71583 25.474 6.71583C28.3501 6.71583 27.2544 10.2485 26.8436 11.6072C27.8022 9.56915 28.624 6.57995 30.8154 6.8517C32.5958 7.12344 32.3219 9.16153 31.911 11.3355C31.6371 13.1019 31.0893 14.8682 31.2262 16.0911C31.3632 17.0422 31.6371 17.8574 32.048 18.265C32.4588 18.6727 33.0067 18.8085 33.6914 18.8085C33.9653 20.1673 32.048 20.8467 30.6784 20.1673C29.7197 19.6239 29.1719 18.5368 29.1719 16.7705C29.0349 13.7813 30.4045 10.9279 29.7197 10.3844C29.3088 9.97676 28.4871 10.6561 28.0762 11.6072C26.9805 13.9171 26.9805 15.0041 26.1588 16.3628C25.611 17.3139 23.6936 17.7216 23.8305 16.4987C23.9675 15.4117 24.3784 13.2378 24.7892 11.4714C25.0631 9.97676 25.0631 9.2974 24.2414 9.43328C23.2827 9.70502 21.5023 13.7813 21.0914 16.9063C20.9545 17.9933 18.4893 18.9444 18.4893 17.4498C18.4893 16.0911 18.7632 14.1889 19.0371 12.0149C19.448 9.56915 19.9958 7.12344 20.2697 5.62883ZM15.4762 10.3844C15.8871 10.3844 16.4349 10.2485 16.8458 10.3844C16.4349 11.8791 16.298 13.2378 16.0241 15.0041C15.8871 16.3628 16.5719 17.1781 17.3936 17.3139C17.8045 17.4498 17.3936 17.9933 17.1197 18.1292C16.298 18.4009 15.0654 18.1292 14.2436 17.4498C13.6957 16.9063 13.5588 16.3628 13.5588 15.6835C13.5588 14.5965 13.6957 13.3737 13.9697 12.0149C14.2436 11.0637 14.7914 10.5203 15.4762 10.3844ZM7.39577 16.7705C5.47838 15.5476 2.60229 16.4987 2.46533 17.5857C2.32837 18.5368 3.83489 19.0803 5.20446 18.6727C6.0262 18.5368 6.9849 17.8574 7.39577 16.7705ZM12.3262 6.98757C14.2436 6.17233 15.6132 4.94947 16.161 3.86248C16.8458 2.232 15.8871 1.28089 15.0654 1.55263C13.5588 2.09613 12.6001 5.22122 12.3262 6.98757Z" fill="white"/>
</svg>
