<svg width="20" height="20" viewBox="0 0 20 20" fill="none" xmlns="http://www.w3.org/2000/svg">
<g clip-path="url(#clip0)">
<path d="M9.99993 0C7.24247 0 5 2.24246 5 4.99992C5 7.75738 7.24247 9.99984 9.99993 9.99984C12.7574 9.99984 14.9999 7.75738 14.9999 4.99992C14.9999 2.24246 12.7574 0 9.99993 0ZM9.99993 7.49988C8.6212 7.49988 7.49996 6.37865 7.49996 4.99992C7.49996 3.62119 8.6212 2.49996 9.99993 2.49996C11.3787 2.49996 12.4999 3.62119 12.4999 4.99992C12.4999 6.37865 11.3787 7.49988 9.99993 7.49988Z" fill="white"/>
<path d="M16.6298 9.86364C16.1411 9.37488 15.3511 9.37488 14.8623 9.86364C12.1824 12.5437 7.81995 12.5437 5.13874 9.86364C4.65 9.37488 3.86001 9.37488 3.37127 9.86364C2.88253 10.3524 2.88253 11.1424 3.37127 11.6324C4.92625 13.1874 6.89747 14.0737 8.92993 14.3049L5.36624 17.8687C4.8775 18.3575 4.8775 19.1475 5.36624 19.6363C5.85498 20.125 6.64497 20.125 7.13371 19.6363L9.99992 16.77L12.8661 19.6363C13.1099 19.88 13.4299 20.0025 13.7499 20.0025C14.0699 20.0025 14.3898 19.88 14.6336 19.6363C15.1223 19.1475 15.1223 18.3575 14.6336 17.8687L11.0699 14.3049C13.1024 14.0737 15.0736 13.1874 16.6286 11.6324C17.1173 11.1437 17.1173 10.3524 16.6298 9.86364Z" fill="white"/>
</g>
<defs>
<clipPath id="clip0">
<rect width="20" height="20" fill="white"/>
</clipPath>
</defs>
</svg>
