<svg width="20" height="20" viewBox="0 0 20 20" fill="none" xmlns="http://www.w3.org/2000/svg">
<g clip-path="url(#clip0)">
<path d="M16.5958 10.857C16.2725 10.4487 16.365 10.267 16.5958 9.90199C16.6 9.89783 19.2692 6.20949 19.5442 4.95866L19.5458 4.95783C19.6825 4.50199 19.5458 4.16699 18.885 4.16699H16.6983C16.1417 4.16699 15.885 4.45449 15.7475 4.77616C15.7475 4.77616 14.6342 7.44116 13.0592 9.16866C12.5508 9.66783 12.3158 9.82783 12.0383 9.82783C11.9017 9.82783 11.6892 9.66783 11.6892 9.21199V4.95783C11.6892 4.41116 11.5333 4.16699 11.0725 4.16699H7.63416C7.28499 4.16699 7.07749 4.42199 7.07749 4.65949C7.07749 5.17783 7.86499 5.29699 7.94666 6.75533V9.91949C7.94666 10.6128 7.82083 10.7403 7.54166 10.7403C6.79833 10.7403 4.99416 8.06449 3.92499 5.00199C3.70916 4.40783 3.49833 4.16783 2.93749 4.16783H0.749992C0.125826 4.16783 -7.62939e-06 4.45533 -7.62939e-06 4.77699C-7.62939e-06 5.34533 0.743326 8.17116 3.45666 11.9045C5.26499 14.4528 7.81166 15.8337 10.1283 15.8337C11.5208 15.8337 11.6908 15.527 11.6908 14.9995C11.6908 12.5645 11.565 12.3345 12.2625 12.3345C12.5858 12.3345 13.1425 12.4945 14.4425 13.7237C15.9283 15.1812 16.1725 15.8337 17.0042 15.8337H19.1908C19.8142 15.8337 20.13 15.527 19.9483 14.922C19.5325 13.6495 16.7225 11.032 16.5958 10.857Z" fill="white"/>
</g>
<defs>
<clipPath id="clip0">
<rect width="20" height="20" fill="white"/>
</clipPath>
</defs>
</svg>
