<svg width="22" height="22" viewBox="0 0 22 22" fill="none" xmlns="http://www.w3.org/2000/svg">
<path d="M5.89831 0H0.796861C0.444669 0 0.15918 0.285489 0.15918 0.637682V5.73914C0.15918 6.09133 0.444669 6.37682 0.796861 6.37682H5.89831C6.2505 6.37682 6.53599 6.09133 6.53599 5.73914V0.637682C6.53599 0.285489 6.2505 0 5.89831 0Z" fill="white"/>
<path d="M13.5506 0H8.4492C8.09701 0 7.81152 0.285489 7.81152 0.637682V5.73914C7.81152 6.09133 8.09701 6.37682 8.4492 6.37682H13.5506C13.9028 6.37682 14.1883 6.09133 14.1883 5.73914V0.637682C14.1883 0.285489 13.9028 0 13.5506 0Z" fill="white"/>
<path d="M5.89831 7.65219H0.796861C0.444669 7.65219 0.15918 7.93768 0.15918 8.28987V13.3913C0.15918 13.7435 0.444669 14.029 0.796861 14.029H5.89831C6.2505 14.029 6.53599 13.7435 6.53599 13.3913V8.28987C6.53599 7.93768 6.2505 7.65219 5.89831 7.65219Z" fill="white"/>
<path d="M13.5506 7.65219H8.4492C8.09701 7.65219 7.81152 7.93768 7.81152 8.28987V13.3913C7.81152 13.7435 8.09701 14.029 8.4492 14.029H13.5506C13.9028 14.029 14.1883 13.7435 14.1883 13.3913V8.28987C14.1883 7.93768 13.9028 7.65219 13.5506 7.65219Z" fill="white"/>
<path d="M21.2025 0H16.1011C15.7489 0 15.4634 0.285489 15.4634 0.637682V5.73914C15.4634 6.09133 15.7489 6.37682 16.1011 6.37682H21.2025C21.5547 6.37682 21.8402 6.09133 21.8402 5.73914V0.637682C21.8402 0.285489 21.5546 0 21.2025 0Z" fill="white"/>
<path d="M21.2025 7.65219H16.1011C15.7489 7.65219 15.4634 7.93768 15.4634 8.28987V13.3913C15.4634 13.7435 15.7489 14.029 16.1011 14.029H21.2025C21.5547 14.029 21.8402 13.7435 21.8402 13.3913V8.28987C21.8402 7.93768 21.5546 7.65219 21.2025 7.65219Z" fill="white"/>
<path d="M5.89831 15.6232H0.796861C0.444669 15.6232 0.15918 15.9087 0.15918 16.2609V21.3623C0.15918 21.7145 0.444669 22 0.796861 22H5.89831C6.2505 22 6.53599 21.7145 6.53599 21.3623V16.2609C6.53599 15.9087 6.2505 15.6232 5.89831 15.6232Z" fill="white"/>
<path d="M13.5506 15.6232H8.4492C8.09701 15.6232 7.81152 15.9087 7.81152 16.2609V21.3623C7.81152 21.7145 8.09701 22 8.4492 22H13.5506C13.9028 22 14.1883 21.7145 14.1883 21.3623V16.2609C14.1883 15.9087 13.9028 15.6232 13.5506 15.6232Z" fill="white"/>
<path d="M21.2025 15.6232H16.1011C15.7489 15.6232 15.4634 15.9087 15.4634 16.2609V21.3623C15.4634 21.7145 15.7489 22 16.1011 22H21.2025C21.5547 22 21.8402 21.7145 21.8402 21.3623V16.2609C21.8402 15.9087 21.5546 15.6232 21.2025 15.6232Z" fill="white"/>
</svg>
