<svg width="14" height="14" viewBox="0 0 14 14" fill="none" xmlns="http://www.w3.org/2000/svg">
<path d="M7 10.3086C8.22322 10.3086 9.21484 9.31697 9.21484 8.09375C9.21484 6.87053 8.22322 5.87891 7 5.87891C5.77678 5.87891 4.78516 6.87053 4.78516 8.09375C4.78516 9.31697 5.77678 10.3086 7 10.3086Z" fill="#1B181D"/>
<path d="M10.2346 2.48828L10.0931 1.78054C10.0167 1.39844 9.67837 1.12109 9.2887 1.12109H4.71119C4.32154 1.12109 3.98322 1.39844 3.90682 1.78054L3.76526 2.48828H10.2346Z" fill="#1B181D"/>
<path d="M12.7695 3.30859C11.8064 3.30859 1.6812 3.30859 1.23047 3.30859C0.551988 3.30859 0 3.86058 0 4.53906V11.6484C0 12.3269 0.551988 12.8789 1.23047 12.8789H12.7695C13.448 12.8789 14 12.3269 14 11.6484V4.53906C14 3.86058 13.448 3.30859 12.7695 3.30859ZM3.5 5.87891H2.1875C1.96098 5.87891 1.77734 5.69527 1.77734 5.46875C1.77734 5.24223 1.96098 5.05859 2.1875 5.05859H3.5C3.72652 5.05859 3.91016 5.24223 3.91016 5.46875C3.91016 5.69527 3.72652 5.87891 3.5 5.87891ZM7 11.1289C5.3264 11.1289 3.96484 9.76735 3.96484 8.09375C3.96484 6.42015 5.3264 5.05859 7 5.05859C8.6736 5.05859 10.0352 6.42015 10.0352 8.09375C10.0352 9.76735 8.6736 11.1289 7 11.1289Z" fill="#1B181D"/>
</svg>
