<svg width="22" height="22" viewBox="0 0 22 22" fill="none" xmlns="http://www.w3.org/2000/svg">
<g clip-path="url(#clip0)">
<path d="M21.858 7.53895C21.7505 7.43332 21.6002 7.38323 21.4508 7.40324H15.6145V4.82439C15.6145 2.27573 13.5484 0.209656 10.9998 0.209656C8.45111 0.209656 6.38504 2.27573 6.38504 4.82439V7.40324H0.548652C0.385762 7.40324 0.222925 7.40324 0.141454 7.53895C0.0320293 7.64412 -0.0187341 7.79635 0.00573834 7.94615L2.04168 19.0758C2.3261 20.6284 3.66668 21.7645 5.24486 21.7904H16.7546C18.3373 21.7515 19.6751 20.6064 19.9578 19.0487L21.9937 7.94615C22.0182 7.79635 21.9674 7.64412 21.858 7.53895ZM7.47081 4.82439C7.47081 2.87543 9.05076 1.29548 10.9997 1.29548C12.9487 1.29548 14.5286 2.87543 14.5286 4.82439V7.40324H7.47081V4.82439ZM18.8719 18.9129C18.6891 19.9418 17.7995 20.6945 16.7546 20.7046H5.24486C4.19998 20.6945 3.31035 19.9418 3.1275 18.9129L1.20016 8.48906H20.7993L18.8719 18.9129Z" fill="#2C2C2C"/>
<path d="M15.0719 13.7824C15.3718 13.7824 15.6148 13.5394 15.6148 13.2395V11.6108C15.6148 11.3109 15.3718 11.0679 15.0719 11.0679C14.7721 11.0679 14.529 11.3109 14.529 11.6108V13.2395C14.5289 13.5394 14.7721 13.7824 15.0719 13.7824Z" fill="#2C2C2C"/>
<path d="M6.92817 13.7824C7.22802 13.7824 7.47108 13.5394 7.47108 13.2395V11.6108C7.47108 11.3109 7.22802 11.0679 6.92817 11.0679C6.62832 11.0679 6.38525 11.3109 6.38525 11.6108V13.2395C6.38525 13.5394 6.62832 13.7824 6.92817 13.7824Z" fill="#2C2C2C"/>
</g>
<defs>
<clipPath id="clip0">
<rect width="22" height="22" fill="white"/>
</clipPath>
</defs>
</svg>
