<svg width="20" height="20" viewBox="0 0 20 20" fill="none" xmlns="http://www.w3.org/2000/svg">
<g clip-path="url(#clip0)">
<path d="M19.8709 6.85355C19.7731 6.75752 19.6365 6.71199 19.5007 6.73017H14.195V4.38576C14.195 2.0688 12.3167 0.190552 9.99976 0.190552C7.68279 0.190552 5.80454 2.0688 5.80454 4.38576V6.73017H0.498739C0.350658 6.73017 0.202623 6.73017 0.128559 6.85355C0.0290822 6.94915 -0.0170664 7.08755 0.0051813 7.22373L1.85603 17.3416C2.1146 18.7531 3.33331 19.7858 4.76802 19.8094H15.2314C16.6702 19.774 17.8864 18.7331 18.1434 17.317L19.9942 7.22373C20.0165 7.08755 19.9703 6.94915 19.8709 6.85355ZM6.79161 4.38576C6.79161 2.61398 8.22793 1.17767 9.99971 1.17767C11.7715 1.17767 13.2078 2.61398 13.2078 4.38576V6.73017H6.79161V4.38576ZM17.1563 17.1935C16.9901 18.1288 16.1813 18.8132 15.2314 18.8223H4.76802C3.81813 18.8132 3.00937 18.1289 2.84315 17.1935L1.09102 7.71729H18.9084L17.1563 17.1935Z" fill="#F02929"/>
<path d="M13.7017 12.5294C13.9743 12.5294 14.1953 12.3085 14.1953 12.0359V10.5552C14.1953 10.2826 13.9743 10.0616 13.7017 10.0616C13.4291 10.0616 13.2081 10.2826 13.2081 10.5552V12.0359C13.2081 12.3085 13.4291 12.5294 13.7017 12.5294Z" fill="#F02929"/>
<path d="M6.29834 12.5294C6.57094 12.5294 6.7919 12.3085 6.7919 12.0359V10.5552C6.7919 10.2826 6.57094 10.0616 6.29834 10.0616C6.02575 10.0616 5.80479 10.2826 5.80479 10.5552V12.0359C5.80479 12.3085 6.02575 12.5294 6.29834 12.5294Z" fill="#F02929"/>
</g>
<defs>
<clipPath id="clip0">
<rect width="20" height="20" fill="white"/>
</clipPath>
</defs>
</svg>
