<svg width="22" height="20" viewBox="0 0 22 20" fill="none" xmlns="http://www.w3.org/2000/svg">
<path d="M20.2547 2.11859C19.1159 0.883408 17.5532 0.203125 15.8543 0.203125C14.5844 0.203125 13.4214 0.604614 12.3975 1.39635C11.8809 1.79599 11.4127 2.28493 11 2.85561C10.5874 2.2851 10.1191 1.79599 9.60234 1.39635C8.57864 0.604614 7.41563 0.203125 6.14571 0.203125C4.44676 0.203125 2.88394 0.883408 1.7451 2.11859C0.619858 3.33934 0 5.00706 0 6.81477C0 8.67535 0.693375 10.3785 2.18201 12.1748C3.5137 13.7816 5.42766 15.4127 7.64407 17.3015C8.40089 17.9465 9.25876 18.6777 10.1495 19.4565C10.3848 19.6626 10.6868 19.7761 11 19.7761C11.313 19.7761 11.6152 19.6626 11.8501 19.4568C12.7409 18.6778 13.5993 17.9464 14.3564 17.301C16.5725 15.4126 18.4865 13.7816 19.8182 12.1746C21.3068 10.3785 22 8.67535 22 6.81461C22 5.00706 21.3801 3.33934 20.2547 2.11859Z" fill="#F02929"/>
</svg>
