<svg width="208" height="50" viewBox="0 0 208 50" fill="none" xmlns="http://www.w3.org/2000/svg">
<path fill-rule="evenodd" clip-rule="evenodd" d="M0.00634766 2.61023H17.5246V5.23766H2.63378V6.99059H17.5246V13.9969H0.00634766V11.3693H14.897V9.6182H0.00634766V2.61023Z" fill="#F02929"/>
<path fill-rule="evenodd" clip-rule="evenodd" d="M108.627 2.61023H126.15V5.23766H111.255V6.99059H126.15V13.9969H108.627V11.3693H123.522V9.6182H108.627V2.61023Z" fill="#F02929"/>
<path fill-rule="evenodd" clip-rule="evenodd" d="M143.667 2.61023H161.185V13.9969H143.667V2.61023ZM158.557 11.3693V5.23766H146.294V11.3693H158.557Z" fill="#F02929"/>
<path fill-rule="evenodd" clip-rule="evenodd" d="M162.062 2.61023H178.706V5.23766H171.698V13.9969H169.071V5.23766H162.062V2.61023Z" fill="#F02929"/>
<path d="M182.209 2.61023H179.582V13.9969H182.209V2.61023Z" fill="#F02929"/>
<path fill-rule="evenodd" clip-rule="evenodd" d="M183.961 2.61023H186.589L198.853 10.9201V2.61023H201.479V13.9969H198.853L186.589 5.80493V13.9969H183.961V2.61023Z" fill="#F02929"/>
<path fill-rule="evenodd" clip-rule="evenodd" d="M127.899 2.61023H130.526V11.3693H142.793V13.9969H127.899V2.61023Z" fill="#F02929"/>
<path fill-rule="evenodd" clip-rule="evenodd" d="M55.1929 2.61023H72.7115V5.23766H57.8205V11.3693H70.0839V9.6182H59.5732V6.99059H72.7115V13.9969H55.1929V2.61023Z" fill="#F02929"/>
<path fill-rule="evenodd" clip-rule="evenodd" d="M19.2778 2.61023H34.169V5.23766H21.9056V6.99059H34.169V9.6182H21.9056V11.3693H34.169V13.9969H19.2778V2.61023Z" fill="#F02929"/>
<path fill-rule="evenodd" clip-rule="evenodd" d="M74.4644 2.61023H89.3587V5.23766H77.092V6.99059H89.3587V9.6182H77.092V11.3693H89.3587V13.9969H74.4644V2.61023Z" fill="#F02929"/>
<path fill-rule="evenodd" clip-rule="evenodd" d="M107.346 2.60468H103.964L98.992 7.5714L94.0201 2.60468H90.6509L97.6519 9.61789H97.6761V13.9966H100.304V9.61789H100.324L107.346 2.60468Z" fill="#F02929"/>
<path fill-rule="evenodd" clip-rule="evenodd" d="M35.9214 2.61023H53.4398V9.6182H49.0902L53.4398 13.9969H49.9375L45.5845 9.6182H38.5492V13.9969H35.9214V2.61023ZM50.8122 6.99059V5.23766H38.5492V6.99059H50.8122Z" fill="#F02929"/>
<path fill-rule="evenodd" clip-rule="evenodd" d="M72.7124 23.6345H125.271L121.769 27.1386H76.2113L72.7124 23.6345Z" fill="#F02929"/>
<path fill-rule="evenodd" clip-rule="evenodd" d="M98.9955 49.896V45.5323L77.0997 23.6408H72.7124L98.9955 49.896Z" fill="#F02929"/>
<path fill-rule="evenodd" clip-rule="evenodd" d="M98.9917 49.8965V45.5328L111.231 33.2702H115.607L98.9917 49.8965Z" fill="#F02929"/>
<path fill-rule="evenodd" clip-rule="evenodd" d="M110.168 33.2702L98.9917 44.4811L82.3545 27.8407H83.2222V27.839H120.86L117.357 31.3428H90.2342L98.9917 40.102L105.828 33.2702H110.168Z" fill="#F02929"/>
<path fill-rule="evenodd" clip-rule="evenodd" d="M95.7084 14.8731H102.163L99.3784 17.6703L102.579 20.872L104.438 20.6142V21.2702L103.154 21.4424L104.469 22.756H103.591L102.382 21.5484L93.4161 22.756L93.4192 22.7543L93.4058 22.756L98.5 17.6651L95.7084 14.8731ZM100.632 15.5312H97.2428L98.9375 17.2276L100.632 15.5312ZM95.1722 21.8951L101.811 20.9759L98.9409 18.1092L95.1722 21.8951Z" fill="#F02929"/>
<path d="M205.573 0.202881C206.912 0.202881 207.968 1.24494 207.968 2.58262C207.968 3.93583 206.912 4.99343 205.56 4.99343C204.219 4.99343 203.15 3.93583 203.15 2.58262C203.15 1.24494 204.219 0.202881 205.56 0.202881H205.573ZM205.543 0.622999C204.468 0.622999 203.645 1.50967 203.645 2.58262C203.645 3.68627 204.468 4.55759 205.573 4.55759C206.646 4.57313 207.456 3.68627 207.456 2.59797C207.456 1.50967 206.646 0.622999 205.56 0.622999H205.543ZM205.122 3.90494H204.687V1.40033C204.921 1.35428 205.187 1.32151 205.511 1.32151C205.932 1.32151 206.133 1.40033 206.305 1.52502C206.444 1.6175 206.554 1.82082 206.554 2.05298C206.554 2.36544 206.322 2.55004 206.054 2.64571V2.67492C206.29 2.75336 206.397 2.95499 206.475 3.28132C206.554 3.65538 206.601 3.81096 206.663 3.90494H206.211C206.133 3.81096 206.071 3.59416 206.011 3.25043C205.946 2.97053 205.777 2.84585 205.419 2.84585H205.122V3.90494ZM205.122 2.48863H205.433C205.777 2.48863 206.086 2.39465 206.086 2.1009C206.086 1.85115 205.932 1.6806 205.481 1.6806C205.311 1.6806 205.2 1.69595 205.122 1.7113V2.48863Z" fill="#F02929"/>
</svg>
