<svg width="14" height="14" viewBox="0 0 14 14" fill="none" xmlns="http://www.w3.org/2000/svg">
<path d="M6.99999 0C3.134 0 0 3.134 0 6.99999C0 10.866 3.134 14 6.99999 14C10.866 14 14 10.866 14 6.99999C13.9959 3.13573 10.8643 0.00413086 6.99999 0ZM9.94795 7.22302C9.8995 7.32023 9.82072 7.39904 9.72348 7.44749V7.44999L5.72349 9.44999C5.47646 9.57342 5.17617 9.47326 5.05271 9.22622C5.01761 9.156 4.99954 9.07848 4.99998 8.99999V5.00001C4.99986 4.72385 5.2236 4.49991 5.49975 4.49976C5.57742 4.49973 5.65403 4.51778 5.72349 4.5525L9.72348 6.55251C9.97063 6.67567 10.0711 6.97587 9.94795 7.22302Z" fill="white"/>
</svg>
