<svg width="18" height="18" viewBox="0 0 18 18" fill="none" xmlns="http://www.w3.org/2000/svg">
<g clip-path="url(#clip0)">
<path d="M15.363 2.63807C11.8466 -0.878279 6.15484 -0.878807 2.638 2.63807C-0.878386 6.15439 -0.878949 11.8463 2.638 15.3631C6.15435 18.8795 11.8462 18.88 15.363 15.3631C18.8794 11.8468 18.8799 6.15491 15.363 2.63807ZM9.00046 16.5204C4.85403 16.5204 1.48064 13.147 1.48064 9.00057C1.48064 4.85414 4.85403 1.48078 9.00046 1.48078C13.1469 1.48078 16.5203 4.85417 16.5203 9.00061C16.5203 13.147 13.1469 16.5204 9.00046 16.5204Z" fill="#1B181D"/>
<path d="M10.1261 4.50696H7.49831C7.09012 4.50696 6.75923 4.83785 6.75923 5.24604V8.26102H5.99671C5.58853 8.26102 5.25764 8.59191 5.25764 9.0001C5.25764 9.40828 5.58853 9.73917 5.99671 9.73917H6.75923V10.5134H5.99671C5.58853 10.5134 5.25764 10.8443 5.25764 11.2525C5.25764 11.6607 5.58853 11.9916 5.99671 11.9916H6.75923V12.7542C6.75923 13.1623 7.09012 13.4932 7.49831 13.4932C7.90649 13.4932 8.23738 13.1623 8.23738 12.7542V11.9916H9.75073C10.1589 11.9916 10.4898 11.6607 10.4898 11.2525C10.4898 10.8443 10.1589 10.5134 9.75073 10.5134H8.23738V9.73917H10.1261C11.5686 9.73917 12.7422 8.56559 12.7422 7.12308C12.7422 5.68054 11.5687 4.50696 10.1261 4.50696ZM10.1261 8.26098H8.23738V5.98508H10.1261C10.7536 5.98508 11.2641 6.49554 11.2641 7.12301C11.2641 7.75049 10.7536 8.26098 10.1261 8.26098Z" fill="#1B181D"/>
</g>
<defs>
<clipPath id="clip0">
<rect width="18" height="18" fill="white"/>
</clipPath>
</defs>
</svg>
